# xmcd
#
# Track frame offsets:
#	150
#	33517
#	63500
#	95840
#	122360
#	146360
#
# Disc length: 2409 seconds
#
# Revision: 10
# Processed by: cddbd v1.5.1PL0 Copyright (c) Steve Scherf et al.
# Submitted via: EasyCDDAExtractor 8.2.3.1
#
DISCID=4e096706
DTITLE=Joe Hisaishi - Symphonic Suite"ARION"
DYEAR=1987
DGENRE=Ambient
TTITLE0=The First Movement
TTITLE1=The Second Movement
TTITLE2=The Third Movement
TTITLE3=The Fourth Movement "Resufina No Uta"
TTITLE4=The Fifth Movement
TTITLE5=The Sixth Movement
EXTD=YEAR: 1987
EXTT0=
EXTT1=
EXTT2=
EXTT3=
EXTT4=
EXTT5=
PLAYORDER=
